<svg width="671" height="73" viewBox="0 0 671 73" fill="none" xmlns="http://www.w3.org/2000/svg">
<path d="M0 73H73.4759V0H0V73ZM36.7249 5.67117C43.8666 5.67117 50.4088 8.07944 55.6478 12.1192L37.9499 29.7024L43.5538 35.2699L61.2516 17.6868C65.2916 22.8918 67.7417 29.4175 67.7417 36.487C67.7417 53.5005 53.8493 67.3029 36.7249 67.3029C19.6005 67.3029 5.70813 53.5005 5.70813 36.487C5.70813 19.4736 19.6005 5.67117 36.7249 5.67117Z" fill="#17E5E0"/>
<path d="M168.117 9.99905C168.117 22.0406 168.117 34.082 168.117 46.1235C168.117 50.1633 166.735 53.6074 163.53 56.197C160.819 58.3722 157.665 59.2527 154.198 58.9419C149.715 58.5276 146.327 56.4041 144.138 52.468C142.991 50.4222 142.652 48.1693 142.652 45.8646C142.652 33.9784 142.652 22.0664 142.652 10.1803V9.1186H136.344V9.92136C136.344 22.0406 136.344 34.1597 136.344 46.2789C136.344 47.4442 136.396 48.6095 136.579 49.7749C137.309 54.203 139.42 57.932 142.939 60.7546C147.396 64.38 152.556 65.6748 158.264 64.8979C162.93 64.2505 166.866 62.1789 169.967 58.6571C173.095 55.1352 174.424 50.966 174.424 46.3307V9.09268H168.117V9.99905Z" fill="#17E5E0"/>
<path d="M120.471 34.7021C117.839 33.3555 114.998 32.9153 112.052 32.8376C110.15 32.7858 108.377 32.2679 106.735 31.2579C103.008 28.9791 101.314 24.2143 102.851 20.1228C104.311 16.2644 107.804 13.8819 112.287 13.7783C117.317 13.6748 121.644 16.601 122.53 21.6247C122.634 22.1427 122.661 22.6865 122.713 23.2562H128.968C129.02 18.6985 127.196 14.9955 123.99 12.0175C120.992 9.24661 117.343 7.87414 113.225 7.77056C106.996 7.61519 101.913 9.86812 98.4466 15.099C95.788 19.1129 95.3709 23.541 96.8045 28.0987C97.7168 31.0249 99.4891 33.3814 101.913 35.2718C104.65 37.3952 107.726 38.6123 111.218 38.8454C113.225 38.9749 115.258 38.9749 117.161 39.8295C123.521 42.6521 124.798 49.8252 121.514 54.6418C119.455 57.6716 116.405 58.9664 112.808 59.1217C107.934 59.3548 103.712 56.558 102.252 52.0522C101.939 51.0941 101.861 50.0841 101.679 49.1001H95.5013C95.3188 54.6677 98.9157 60.5719 104.076 63.1356C109.472 65.8028 114.945 65.9582 120.419 63.3945C126.883 60.3906 130.558 53.5024 129.385 46.5364C128.473 41.0983 125.397 37.2399 120.497 34.728L120.471 34.7021Z" fill="#17E5E0"/>
<path d="M209.09 12.9493C205.884 10.1526 202 9.06493 197.804 9.03903C194.598 9.03903 191.392 9.03903 188.186 9.03903H181.878V63.8085H181.931C184.016 63.8085 186.075 63.8085 188.186 63.8085V39.4924H189.124C191.965 39.4924 194.832 39.4924 197.674 39.4924C199.863 39.4924 202.026 39.2593 204.085 38.4566C209.272 36.4885 212.843 32.9667 214.016 27.5027C215.267 21.7538 213.573 16.8595 209.09 12.9752V12.9493ZM199.211 33.4328C195.693 33.5623 192.148 33.5105 188.629 33.5105C188.473 33.5105 188.368 33.4587 188.238 33.4587V14.9951H188.473C192.278 14.9951 196.084 14.8915 199.889 15.1504C204.346 15.4871 208.23 19.2937 208.125 24.4211C208.047 29.3931 204.085 33.2256 199.211 33.4069V33.4328Z" fill="#17E5E0"/>
<path d="M279.333 38.454C284.52 36.486 288.065 32.9642 289.264 27.5002C290.515 21.7513 288.82 16.857 284.337 12.9727C281.105 10.1759 277.248 9.08834 273.051 9.06244C268.021 9.03655 262.99 9.06244 257.96 9.06244H257.126C257.126 27.3707 257.178 45.6013 257.178 63.8318H263.434V39.5158H264.372C265.858 39.5158 267.317 39.5158 268.803 39.5158L285.145 63.8836H292.469L275.997 39.3086C277.144 39.1532 278.264 38.8943 279.359 38.48L279.333 38.454ZM263.851 33.5339C263.694 33.5339 263.59 33.4821 263.46 33.4821V15.0185H263.694C267.5 15.0185 271.305 14.9149 275.11 15.1738C279.568 15.5105 283.451 19.3171 283.347 24.4445C283.269 29.4165 279.307 33.249 274.433 33.4303C270.914 33.5598 267.369 33.508 263.851 33.508V33.5339Z" fill="#17E5E0"/>
<path d="M424.956 53.5554L395.139 9.1702H388.987V63.8102H395.139V19.4249L424.956 63.8102H431.108V9.1702H424.956V53.5554Z" fill="#17E5E0"/>
<path d="M220.479 9.06287V63.7805C230.228 63.7805 239.924 63.7805 249.62 63.7805H249.698V57.7986H249.62C241.983 57.7986 234.372 57.7986 226.813 57.7986V38.6876H248.812V32.6797H226.813V15.0706H249.62H249.698V9.08875H220.506L220.479 9.06287Z" fill="#17E5E0"/>
<path d="M328.204 15.0746V9.09268H292.938V15.1264H307.404V63.8103H313.712V15.1005H328.178L328.204 15.0746Z" fill="#17E5E0"/>
<path d="M438.562 9.06287V63.7805C448.049 63.7805 457.485 63.7805 466.92 63.7805H467.754V57.7727H467.676C460.039 57.7727 452.428 57.7727 444.87 57.7727V38.6616H466.868V32.6539H444.87V15.0448H467.676H467.754V9.06287H438.562Z" fill="#17E5E0"/>
<path d="M355.182 8.28775C339.569 8.28775 326.875 20.899 326.875 36.4105C326.875 51.922 339.569 64.5332 355.182 64.5332C370.794 64.5332 383.488 51.922 383.488 36.4105C383.488 20.899 370.794 8.28775 355.182 8.28775ZM355.182 58.4477C342.957 58.4477 333.001 48.5556 333.001 36.4105C333.001 24.2654 342.957 14.3733 355.182 14.3733C367.406 14.3733 377.362 24.2654 377.362 36.4105C377.362 48.5556 367.406 58.4477 355.182 58.4477Z" fill="#17E5E0"/>
<path d="M541.812 51.2246H512.072L504.957 69.8436H495L521.716 3.13623H532.429L559.145 69.8436H549.11L541.812 51.2246ZM515.409 42.6531H538.528L526.877 12.7435L515.409 42.6531Z" fill="#17E5E0"/>
<path d="M577.154 42.5733V69.8674H567.875V3.16006H592.298C604.705 3.16006 613.045 11.7315 613.045 22.9185C613.045 34.1054 604.705 42.5733 592.298 42.5733H577.154ZM590.604 34.2867C598.658 34.2867 603.584 29.8585 603.584 22.9962C603.584 16.1338 598.658 11.4208 590.604 11.4208H577.154V34.2867H590.604Z" fill="#17E5E0"/>
<path d="M623.003 69.8436V3.13623H632.464V69.8436H623.003Z" fill="#17E5E0"/>
</svg>
